<svg width="24" height="24" viewBox="0 0 24 24" fill="none" xmlns="http://www.w3.org/2000/svg">
<rect width="24" height="24" rx="5" fill="url(#paint0_radial)"/>
<path d="M13.296 11.43C14.064 11.658 14.652 12.03 15.06 12.546C15.468 13.062 15.672 13.698 15.672 14.454C15.672 15.57 15.246 16.44 14.394 17.064C13.554 17.688 12.348 18 10.776 18H4.566V5.4H10.434C11.898 5.4 13.038 5.682 13.854 6.246C14.67 6.81 15.078 7.614 15.078 8.658C15.078 9.282 14.922 9.834 14.61 10.314C14.298 10.782 13.86 11.154 13.296 11.43ZM7.464 10.62H10.182C10.818 10.62 11.298 10.494 11.622 10.242C11.946 9.978 12.108 9.594 12.108 9.09C12.108 8.598 11.94 8.22 11.604 7.956C11.28 7.692 10.806 7.56 10.182 7.56H7.464V10.62ZM10.668 15.84C12.036 15.84 12.72 15.3 12.72 14.22C12.72 13.176 12.036 12.654 10.668 12.654H7.464V15.84H10.668Z" fill="white"/>
<path d="M18.5001 9C17.127 9 16 10.1272 16 11.4997C16 12.8733 17.127 14 18.5001 14C19.8736 14 21 12.8733 21 11.4997C20.9998 10.1272 19.8736 9 18.5001 9Z" fill="white"/>
<defs>
<radialGradient id="paint0_radial" cx="0" cy="0" r="1" gradientUnits="userSpaceOnUse" gradientTransform="translate(24) rotate(135) scale(33.9411)">
<stop stop-color="#391EA6"/>
<stop offset="1" stop-color="#2B84D6"/>
</radialGradient>
</defs>
</svg>
